<?xml version="1.0" encoding="UTF-8" standalone="no"?>
<svg
   version="1.1"
   style="display:block"
   viewBox="0 0 512 512"
   width="256"
   height="256"
   preserveAspectRatio="none"
   id="svg8643"
   sodipodi:docname="installrs.svg"
   inkscape:version="1.2.2 (b0a8486541, 2022-12-01)"
   inkscape:export-filename="installrs.png"
   inkscape:export-xdpi="96"
   inkscape:export-ydpi="96"
   xmlns:inkscape="http://www.inkscape.org/namespaces/inkscape"
   xmlns:sodipodi="http://sodipodi.sourceforge.net/DTD/sodipodi-0.dtd"
   xmlns="http://www.w3.org/2000/svg"
   xmlns:svg="http://www.w3.org/2000/svg">
  <sodipodi:namedview
     id="namedview11899"
     pagecolor="#505050"
     bordercolor="#ffffff"
     borderopacity="1"
     inkscape:showpageshadow="0"
     inkscape:pageopacity="0"
     inkscape:pagecheckerboard="1"
     inkscape:deskcolor="#505050"
     showgrid="false"
     inkscape:zoom="0.84082031"
     inkscape:cx="225.37515"
     inkscape:cy="321.11498"
     inkscape:window-width="1920"
     inkscape:window-height="1048"
     inkscape:window-x="0"
     inkscape:window-y="0"
     inkscape:window-maximized="1"
     inkscape:current-layer="svg8643" />
  <defs
     id="defs8551">
    <linearGradient
       id="Gradient1"
       gradientUnits="userSpaceOnUse"
       x1="1512.13"
       y1="893.08197"
       x2="1306.25"
       y2="773.45697">
      <stop
         class="stop0"
         offset="0"
         stop-opacity="1"
         stop-color="rgb(255,157,14)"
         id="stop8526" />
      <stop
         class="stop1"
         offset="1"
         stop-opacity="1"
         stop-color="rgb(255,197,86)"
         id="stop8528" />
    </linearGradient>
    <linearGradient
       id="Gradient2"
       gradientUnits="userSpaceOnUse"
       x1="568.94098"
       y1="898.63599"
       x2="681.65997"
       y2="729.461">
      <stop
         class="stop0"
         offset="0"
         stop-opacity="1"
         stop-color="rgb(255,162,29)"
         id="stop8531" />
      <stop
         class="stop1"
         offset="1"
         stop-opacity="1"
         stop-color="rgb(255,197,87)"
         id="stop8533" />
    </linearGradient>
    <linearGradient
       id="Gradient3"
       gradientUnits="userSpaceOnUse"
       x1="510.164"
       y1="1065.87"
       x2="968.01099"
       y2="1004.97"
       gradientTransform="translate(-342.28237,-227.93661)">
      <stop
         class="stop0"
         offset="0"
         stop-opacity="1"
         stop-color="rgb(255,143,4)"
         id="stop8536" />
      <stop
         class="stop1"
         offset="1"
         stop-opacity="1"
         stop-color="rgb(255,172,44)"
         id="stop8538" />
    </linearGradient>
    <linearGradient
       id="Gradient4"
       gradientUnits="userSpaceOnUse"
       x1="1291.24"
       y1="1168.2"
       x2="1194.08"
       y2="970.75403">
      <stop
         class="stop0"
         offset="0"
         stop-opacity="1"
         stop-color="rgb(105,27,14)"
         id="stop8541" />
      <stop
         class="stop1"
         offset="1"
         stop-opacity="1"
         stop-color="rgb(71,38,24)"
         id="stop8543" />
    </linearGradient>
    <linearGradient
       id="Gradient5"
       gradientUnits="userSpaceOnUse"
       x1="821.69"
       y1="1339.2"
       x2="1049.03"
       y2="1138.99">
      <stop
         class="stop0"
         offset="0"
         stop-opacity="1"
         stop-color="rgb(255,104,0)"
         id="stop8546" />
      <stop
         class="stop1"
         offset="1"
         stop-opacity="1"
         stop-color="rgb(254,147,17)"
         id="stop8548" />
    </linearGradient>
  </defs>
  <rect
     style="fill:#1e2128;fill-opacity:1;stroke:none;stroke-width:4.26665;stroke-linecap:round;stroke-linejoin:round;paint-order:stroke fill markers"
     id="rect11554"
     width="512"
     height="512"
     x="-3.2684966e-13"
     y="-3.2684966e-13"
     rx="100"
     ry="100" />
  <g
     id="g11336"
     transform="matrix(0.42684233,0,0,0.42684233,-182.16086,-68.97747)">
    <path
       fill="#fefefe"
       d="m 996.338,268.885 60.232,0.19 c 7.2,18.759 14.19,37.599 20.96,56.515 10.54,2.043 22.09,3.802 32.77,5.699 11.57,-15.055 27.99,-33.798 40.54,-48.258 14.8,5.287 48.37,14.826 60.07,22.129 -1.87,15.725 -1.88,42.618 -1.99,58.86 9.5,5.294 23.34,11.563 33.38,16.458 15.04,-8.318 35.39,-23.864 50.66,-33.812 15.17,8.493 40.66,26.294 52.87,37.715 -6.81,17.938 -13.08,37.119 -19.38,55.326 8.55,8.963 17.41,17.616 26.58,25.939 l 58.16,-18.011 c 11.43,12.072 29.07,37.196 37.83,51.731 -10.53,15.393 -24.65,32.855 -36.21,47.785 5.54,10.174 10.94,20.428 16.18,30.76 16.2,0.026 45.55,1.17 60.72,3.022 5.29,0.646 19.23,52.241 21.12,59.731 -11.76,9.271 -38.61,24.4 -52.62,33.787 1.86,11.936 3.29,23.935 4.3,35.972 13.46,4.775 47.78,16.003 59.33,21.593 0.66,21.46 -2.44,42.297 -5.66,63.409 -15.45,3.298 -31.64,9.5 -47.22,11.198 -14.61,1.592 -66.79,-22.844 -84.46,-27.798 l -1.6,-0.439 c 3.98,-33.712 3.62,-55.17 0.14,-88.855 -19.41,-9.774 -39.14,-18.912 -59.16,-27.4 -2.93,-8.381 -6.6,-17.441 -9.79,-25.802 10.14,-10.289 26.15,-34.952 36.88,-48.159 -8.29,-17.681 -23.2,-40.262 -35.47,-55.946 -58.9,-75.382 -145.35,-124.255 -240.31,-135.851 l -26.88,31.636 -8.55,9.731 c -8.88,0.164 -18.17,-0.021 -27.08,-0.064 -9.83,-13.596 -24.349,-28.034 -35.456,-41.413 -124.972,19.04 -213.287,79.206 -274.721,189.921 11.819,16.839 24.005,33.417 36.548,49.724 -2.892,8.275 -5.988,15.703 -8.672,24.211 -19.42,7.278 -41.844,18.94 -60.806,28.127 -1.212,27.892 -3.375,57.354 1.7,84.868 -18.046,6.182 -76.792,30.384 -90.936,30.358 -15.295,-0.028 -28.618,-4.735 -43.269,-8.279 -3.822,-22.413 -6.334,-41.15 -5.919,-64.072 10.283,-4.743 50.136,-18.403 60.547,-20.918 0.66,-12.258 2.099,-23.324 3.733,-35.446 -16.217,-12.519 -40.739,-24.349 -53.487,-34.947 4.357,-14.187 13.557,-50.682 21.105,-60.964 19.828,0.399 41.341,-1.04 61.383,-1.695 5.772,-10.124 10.688,-20.539 15.79,-31.011 -11.581,-13.152 -26.082,-32.966 -37.141,-47.248 8.054,-13.196 29.782,-43.187 40.427,-53.786 15.207,6.547 40.095,14.364 56.497,20.291 8.494,-7.771 18.165,-17.858 26.471,-26.085 -4.454,-16.835 -12.689,-39.322 -18.334,-56.262 12.21,-11.855 36.841,-28.804 51.823,-37.045 12.419,6.94 37.501,25.421 50.772,34.319 11.877,-6.023 23.913,-11.726 36.095,-17.104 -2.508,-19.09 -3.556,-40.056 -4.36,-59.292 13.118,-7.395 43.761,-16.041 58.984,-20.137 9.713,9.884 31.979,35.891 40.128,46.899 10.55,-2.046 21.84,-3.43 32.528,-4.928 7.245,-18.25 14.095,-39.294 22.228,-56.877 z"
       id="path8599" />
    <path
       fill="#1e2128"
       d="m 656.977,603.961 c 10.21,-0.763 20.042,4.017 25.747,12.518 5.705,8.501 6.403,19.411 1.828,28.57 -4.575,9.159 -13.718,15.153 -23.941,15.697 -15.573,0.828 -28.91,-11.033 -29.906,-26.595 -0.996,-15.563 10.721,-29.027 26.272,-30.19 z"
       id="path8601" />
    <path
       fill="#1e2128"
       d="m 1386.34,605.339 c 14.95,-3.695 30.09,5.338 33.94,20.25 3.84,14.912 -5.03,30.144 -19.9,34.147 -9.76,2.627 -20.18,-0.189 -27.28,-7.376 -7.11,-7.186 -9.8,-17.635 -7.07,-27.363 2.74,-9.727 10.5,-17.234 20.31,-19.658 z"
       id="path8603" />
    <path
       fill="#1e2128"
       d="m 1022.58,338.368 c 15.35,-1.79 29.22,9.283 30.87,24.651 1.65,15.368 -9.55,29.132 -24.94,30.64 -15.18,1.488 -28.727,-9.537 -30.355,-24.706 -1.628,-15.17 9.275,-28.818 24.425,-30.585 z"
       id="path8605" />
  </g>
  <path
     style="fill:#d84b00;fill-opacity:1;stroke:none;stroke-width:0.853685px;stroke-linecap:butt;stroke-linejoin:miter;stroke-opacity:1"
     d="M 80.000002,252 256,200 431.99997,256 256,320.00002 Z"
     id="path11391" />
  <g
     id="g11343"
     transform="matrix(0.42353677,0,0,0.40619593,-177.84093,-54.49758)">
    <path
       fill="#fefefe"
       d="m 846.512,489.213 c 11.048,-1.15 41.42,-0.532 53.5,-0.532 l 104.858,-0.012 125.95,-0.045 c 22.6,-0.024 45.78,-0.412 68.35,0.483 7.59,0.302 15.18,2.766 21.88,6.36 13.39,7.018 23.35,19.178 27.59,33.685 3.26,11.359 2.18,57.399 2.18,71.974 l 0.03,116.458 -0.02,97.675 c -0.01,18.321 0.26,36.585 -0.47,54.896 -1.16,28.683 -19.14,43.827 -45.42,50.64 -10.5,1.761 -40.42,1.014 -52.08,0.992 l -96.76,-0.099 -135.341,0.038 c -19.026,0.025 -38.168,0.013 -57.161,0.028 -17.776,0.014 -28.814,-1.477 -43.649,-11.627 -27.293,-18.675 -21.823,-50.323 -21.856,-79.13 l -0.045,-90.671 0.061,-130.846 c 0.021,-23.101 -0.457,-46.224 0.79,-69.284 1.487,-27.491 21.28,-46.058 47.613,-50.983 z"
       id="path8589" />
    <path
       fill="#1e2128"
       d="m 864.213,510.436 225.997,-0.491 65,-0.051 c 22,-0.003 44.02,-3.047 61.05,13.619 13.73,13.441 11.15,32.457 11.03,49.896 l -41.04,0.323 -364.798,0.087 c -0.132,-17.631 -2.306,-36.075 10.633,-49.599 9.349,-9.772 19.197,-13.003 32.128,-13.784 z"
       id="path8591" />
    <path
       fill="#fe7400"
       d="m 1048.95,637.29 c 5.22,-0.174 28.82,-2.286 26.46,7.637 -10.16,42.587 -25.4,86.58 -40.18,127.665 -5.09,14.138 -21.35,67.416 -29.16,74.952 -7.835,0.261 -22.146,2.227 -27.285,-4.347 1.048,-11.604 11.88,-42.072 16.09,-54.254 l 24.915,-71.625 c 4.01,-11.556 23.88,-74.482 29.16,-80.028 z"
       id="path8593" />
    <path
       fill="#fe7400"
       d="m 949.496,669.875 c 6.347,0.781 9.874,5.286 13.412,10.027 l 0.081,18.504 c -4.838,3.627 -10.895,7.078 -16.258,10.026 -17.726,9.741 -35.069,21.347 -53.174,30.223 19.831,13.839 53.843,26.474 68.765,43.684 2.12,2.445 3.41,37.578 -21.882,21.766 -19.159,-11.388 -38.403,-22.632 -57.73,-33.732 -10.437,-5.985 -21.794,-11.803 -31.747,-18.38 -0.474,-7.605 -0.062,-16.269 0.125,-23.979 3.947,-2.786 8.153,-5.128 12.358,-7.499 28.995,-16.345 56.876,-34.611 86.05,-50.64 z"
       id="path8595" />
    <path
       fill="#fe7400"
       d="m 1098.82,670.612 c 7.69,-0.033 88.2,50.123 100.11,58.32 0.89,8.674 0.81,13.879 0.6,22.675 -7.43,5.48 -23.81,14.091 -32.52,18.959 -16.66,9.235 -33.18,18.733 -49.55,28.491 -5.35,3.415 -11.82,8.951 -18.32,8.832 -13.97,-0.255 -11.31,-19.707 -10.95,-29.08 7.12,-6.201 54.08,-32.21 66.47,-39.385 -13.83,-8.254 -54.67,-31.431 -65.54,-40.257 -0.15,-7.097 -0.22,-14.196 -0.22,-21.295 3.68,-3.432 5.7,-4.577 9.92,-7.26 z"
       id="path8597" />
  </g>
  <g
     id="g11330"
     transform="matrix(0.42684233,0,0,0.42684233,-181.62906,-130.44277)">
    <path
       fill="url(#Gradient5)"
       d="m 1025.271,1036.5485 v 356.1034 L 603.56961,1223.9713 v -178.0517 l 303.99667,128.0633 z"
       id="path8557"
       style="fill:url(#Gradient5)" />
    <path
       fill="#601e13"
       d="M 1025.271,1036.5485 912.8173,1205.229 603.56961,1083.4042 v -46.8557 z"
       id="path8563"
       style="stroke:none" />
    <path
       fill="#d84b00"
       d="M 1025.271,1036.5485 1149.17,1177.3 1446.9724,1045.9196 v 187.4229 l -421.7014,159.3094 z"
       id="path8573" />
    <path
       fill="url(#Gradient4)"
       d="m 1025.271,1036.5485 421.7014,9.3711 v 46.8557 l -309.2477,112.4537 z"
       id="path8577"
       style="fill:#601e13;fill-opacity:1" />
    <path
       style="fill:#fe9713;fill-opacity:1;stroke:none;stroke-width:2px;stroke-linecap:butt;stroke-linejoin:miter;stroke-opacity:1"
       d="M 612.94076,895.98136 500.48705,1017.8062 903.44616,1177.1156 1025.271,1036.5485 Z"
       id="path8789" />
    <path
       style="fill:#fe9713;fill-opacity:1;stroke:none;stroke-width:2px;stroke-linecap:butt;stroke-linejoin:miter;stroke-opacity:1"
       d="M 1025.271,1036.5485 1149.17,1177.3 1550.86,1021.23 1437.6012,905.3525 Z"
       id="path8791" />
  </g>
</svg>
